<svg width="14" height="21" viewBox="0 0 14 21" fill="none" xmlns="http://www.w3.org/2000/svg">
<path d="M4.54125 7.99094C1.953 8.52294 0 10.8189 0 13.5625V21H14V13.5625C14 10.8189 12.047 8.52294 9.45875 7.99094C10.6142 7.203 11.375 5.87606 11.375 4.375C11.375 1.96263 9.41237 0 7 0C4.58763 0 2.625 1.96263 2.625 4.375C2.625 5.87606 3.38581 7.203 4.54125 7.99094ZM8.3125 8.75C10.9659 8.75 13.125 10.9091 13.125 13.5625V20.125H0.875V13.5625C0.875 10.9091 3.03406 8.75 5.6875 8.75H8.3125ZM7 0.875C8.92981 0.875 10.5 2.44519 10.5 4.375C10.5 6.30481 8.92981 7.875 7 7.875C5.07019 7.875 3.5 6.30481 3.5 4.375C3.5 2.44519 5.07019 0.875 7 0.875Z" fill="black"/>
</svg>
