<svg width="22" height="22" viewBox="0 0 22 22" fill="none" xmlns="http://www.w3.org/2000/svg">
<path d="M0.0622559 21.875V5H5.06226V0H16.9372V10H21.9372V21.875H12.5623V16.875H9.43719V21.875H0.0622559ZM1.93719 20H5.06226V16.875H1.93719V20ZM1.93719 15H5.06226V11.875H1.93719V15ZM1.93719 10H5.06226V6.87497H1.93719V10ZM6.93719 15H10.0623V11.875H6.93719V15ZM6.93719 10H10.0623V6.87497H6.93719V10ZM6.93719 5H10.0623V1.87497H6.93719V5ZM11.9372 15H15.0623V11.875H11.9372V15ZM11.9372 10H15.0623V6.87497H11.9372V10ZM11.9372 5H15.0623V1.87497H11.9372V5ZM16.9372 20H20.0623V16.875H16.9372V20ZM16.9372 15H20.0623V11.875H16.9372V15Z" fill="#1C1B1F"/>
</svg>
