<svg width="21" height="22" viewBox="0 0 21 22" fill="none" xmlns="http://www.w3.org/2000/svg">
<path d="M10.5027 21.9596C8.07281 21.9596 5.64304 21.9596 3.2076 21.9596C2.79043 21.9596 2.70586 21.8751 2.70586 21.4466C2.70586 20.6856 2.70022 19.9244 2.7115 19.1634C2.7115 18.9773 2.66639 18.9041 2.46344 18.9097C1.78694 18.9209 1.11043 18.9153 0.433914 18.9153C0.112572 18.9153 -0.000179955 18.8026 -0.000179955 18.4869C-0.000179955 17.0099 -0.00581754 15.5272 -0.000179955 14.0501C-0.000179955 13.3003 0.371901 12.7704 1.04278 12.4772C1.95607 12.077 2.88626 11.6992 3.81082 11.3272C3.99687 11.2538 4.0476 11.1524 4.06452 10.9551C4.10398 10.5548 3.97995 10.2955 3.63043 10.053C3.02721 9.62463 2.66076 9.00443 2.46344 8.28849C2.43525 8.17574 2.40143 8.10809 2.26613 8.09682C1.74747 8.05735 1.37539 7.67963 1.31338 7.15534C1.26264 6.70433 1.57835 6.23641 2.03499 6.0842C2.2774 6.00527 2.27177 6.00527 2.15901 5.77413C1.97297 5.3795 1.73056 5.01306 1.63472 4.57896C1.40922 3.5642 1.93351 2.52125 2.8919 2.13789C3.14559 2.03641 3.36546 1.90111 3.57968 1.73198C4.27874 1.19077 5.06801 0.925807 5.95874 0.96527C6.21808 0.976545 6.48304 1.00473 6.72546 1.09493C7.54291 1.41064 8.40546 1.66433 9.02558 2.34084C9.60059 2.96661 9.83743 3.71641 9.72465 4.56205C9.70209 4.7199 9.71905 4.77628 9.90502 4.74245C10.2602 4.6748 10.6154 4.65789 10.9762 4.72554C11.0945 4.74809 11.1397 4.71426 11.1171 4.57896C10.9255 3.34433 11.4103 2.50997 12.5773 2.05896C12.7577 1.99131 12.8986 1.85601 13.0452 1.73762C13.7443 1.19641 14.5335 0.925807 15.4243 0.96527C15.6836 0.976545 15.9486 1.00473 16.1909 1.09493C16.9689 1.38809 17.7695 1.63614 18.3896 2.22809C19.2184 3.02299 19.4495 4.22379 19.0041 5.28366C18.9195 5.48098 18.8406 5.67265 18.7504 5.86433C18.7053 5.96581 18.6884 6.01091 18.835 6.04473C19.348 6.15749 19.7031 6.61413 19.675 7.09333C19.6468 7.6289 19.2635 8.02353 18.7109 8.09118C18.6095 8.10245 18.5644 8.14191 18.5418 8.23776C18.3163 9.10593 17.8202 9.78812 17.0704 10.2786C17.0197 10.3124 16.9521 10.3462 16.9521 10.4195C16.9464 10.6563 16.9464 10.8987 16.9521 11.1355C16.9577 11.2426 17.0592 11.2538 17.1324 11.2877C18.0627 11.6767 18.9928 12.06 19.9174 12.4547C20.6278 12.7591 21.0055 13.3003 20.9998 14.0839C20.9998 15.5328 20.9998 16.9873 20.9998 18.4362C20.9998 18.8138 20.904 18.9097 20.5263 18.9097C19.8554 18.9097 19.1901 18.9153 18.5193 18.9041C18.3389 18.9041 18.2881 18.9605 18.2938 19.1352C18.2994 19.9188 18.2994 20.6968 18.2994 21.4805C18.2994 21.8525 18.2036 21.9484 17.8202 21.9484C15.3792 21.9596 12.938 21.9596 10.5027 21.9596ZM19.2973 18.2107C19.5622 18.2107 19.8328 18.205 20.0978 18.2107C20.2444 18.2163 20.2951 18.1656 20.2951 18.019C20.2895 16.7223 20.3008 15.4257 20.2895 14.129C20.2838 13.6386 20.0527 13.2947 19.5848 13.103C18.5644 12.6858 17.544 12.2517 16.5236 11.8289C16.3206 11.7443 16.2248 11.6147 16.2304 11.3948C16.2417 10.9889 16.236 10.5773 16.2304 10.1715C16.2304 9.99672 16.298 9.87266 16.4503 9.79372C17.2734 9.34836 17.7582 8.66621 17.8935 7.73037C17.9273 7.49359 18.057 7.39776 18.2994 7.39212C18.3952 7.39212 18.4967 7.39776 18.5926 7.38648C18.7899 7.36393 18.9252 7.22863 18.9252 7.06514C18.9252 6.90164 18.7843 6.77198 18.587 6.74943C18.4967 6.73815 18.4065 6.74943 18.3107 6.74379C18.0457 6.73815 17.9386 6.61977 17.9217 6.34916C17.9048 6.0842 17.9556 5.83614 18.0683 5.59372C18.1866 5.35131 18.2881 5.10326 18.3784 4.8552C18.7053 3.89682 18.2825 2.85386 17.3805 2.39721C17.0309 2.22245 16.6701 2.05333 16.3037 1.90675C15.4073 1.55158 14.5392 1.62487 13.7217 2.14916C13.3271 2.40285 12.9663 2.68473 12.5209 2.88205C11.8557 3.1752 11.6132 3.99265 11.9008 4.66916C12.0079 4.91721 12.1431 5.11454 12.4194 5.21037C12.6336 5.28366 12.8309 5.39077 13.0339 5.49225C14.1276 6.07292 14.697 7.35265 14.4095 8.55346C14.3193 8.91988 14.1501 9.25254 14.0036 9.59639C13.9528 9.72605 13.9754 9.76556 14.1107 9.75428C14.1501 9.74861 14.1952 9.75428 14.2347 9.75428C14.6744 9.75988 15.0578 10.0362 15.1987 10.4477C15.3397 10.8705 15.1987 11.3328 14.8492 11.6091C14.618 11.7894 14.3531 11.8402 14.0713 11.812C13.8908 11.7951 13.8119 11.8627 13.7668 12.0375C13.5808 12.7422 13.2087 13.3454 12.6167 13.7626C12.2728 14.005 12.1432 14.2643 12.1883 14.6646C12.2052 14.8394 12.2503 14.9183 12.425 14.9634C13.9303 15.375 15.4356 15.7978 16.9408 16.215C17.217 16.2938 17.4763 16.3953 17.6906 16.5927C18.0852 16.9478 18.2994 17.3763 18.2881 17.9119C18.2825 18.205 18.2881 18.205 18.5926 18.205C18.8293 18.2107 19.0661 18.2107 19.2973 18.2107ZM0.704518 16.0571C0.704518 16.7054 0.704518 17.3537 0.704518 18.0021C0.704518 18.1317 0.721431 18.2163 0.884917 18.2107C1.43177 18.205 1.98425 18.205 2.53109 18.2107C2.66076 18.2107 2.70586 18.1656 2.70586 18.0359C2.70586 17.8837 2.69459 17.7202 2.72841 17.5736C2.88626 16.8577 3.326 16.4179 4.03069 16.2206C5.40626 15.8429 6.78183 15.4595 8.16303 15.0762C8.80011 14.9014 8.80011 14.9014 8.80011 14.2587C8.80011 14.1234 8.75499 14.0444 8.64222 13.9656C7.92627 13.492 7.44143 12.8437 7.22157 12.015C7.17646 11.8515 7.10317 11.7894 6.94532 11.812C6.88895 11.8177 6.83257 11.812 6.7762 11.812C6.3421 11.8177 6.02639 11.609 5.85164 11.2257C5.67123 10.8367 5.71069 10.4534 5.98694 10.1151C6.19552 9.86138 6.46613 9.73733 6.80438 9.74861C7.03552 9.75428 7.04116 9.74301 6.93405 9.52873C6.80438 9.26382 6.66344 9.00443 6.53942 8.73386C6.00949 7.61198 6.51687 6.27587 7.6613 5.84178C8.08976 5.67829 8.39418 5.34568 8.77755 5.13144C8.82266 5.10326 8.85082 5.02997 8.87337 4.97359C9.23418 4.09977 8.96359 3.06809 8.17431 2.55507C7.60492 2.18299 6.97351 1.90111 6.30828 1.73762C6.21808 1.71507 6.12787 1.70943 6.03767 1.69816C5.26532 1.64178 4.58881 1.86164 3.98559 2.34084C3.73753 2.53815 3.48385 2.70728 3.17378 2.82004C2.54801 3.05118 2.20975 3.72769 2.35069 4.38164C2.44653 4.82701 2.70586 5.20473 2.90881 5.605C3.03284 5.85306 3.08922 6.10111 3.0723 6.37735C3.05539 6.61413 2.94264 6.73252 2.70022 6.74379C2.56492 6.74943 2.43525 6.72688 2.29995 6.77198C2.15338 6.82272 2.07445 6.9242 2.07445 7.07077C2.07445 7.21735 2.15902 7.31883 2.30559 7.36393C2.42962 7.40339 2.55929 7.38648 2.68331 7.39212C2.95392 7.39776 3.0723 7.49923 3.11177 7.75856C3.24707 8.66621 3.72063 9.33141 4.51552 9.77684C4.69029 9.87266 4.76922 10.0023 4.76358 10.2052C4.75794 10.583 4.76358 10.9664 4.76358 11.3441C4.76358 11.671 4.71848 11.7387 4.40841 11.8627C3.42747 12.2743 2.44653 12.6802 1.46559 13.0917C0.913112 13.3229 0.704518 13.6329 0.704518 14.2249C0.704518 14.8337 0.704518 15.4482 0.704518 16.0571ZM10.4857 21.255C11.8726 21.255 13.2594 21.2493 14.6463 21.2606C14.8323 21.2606 14.8887 21.2099 14.8887 21.0238C14.8774 20.3473 14.883 19.6708 14.883 18.9943C14.8887 18.4925 14.8098 18.5658 15.3397 18.5489C15.5314 18.5433 15.5934 18.6052 15.5934 18.8026C15.5821 19.5467 15.5934 20.2965 15.5878 21.0407C15.5878 21.2042 15.6328 21.2663 15.802 21.2606C16.3376 21.2493 16.8731 21.255 17.4087 21.2606C17.544 21.2606 17.5948 21.2099 17.5948 21.0745C17.5891 20.0372 17.6003 19.0056 17.5891 17.9682C17.5835 17.4439 17.3072 17.0775 16.828 16.9422C15.2777 16.5081 13.7217 16.0796 12.1714 15.6456C12.0192 15.6061 11.9233 15.6343 11.8162 15.7414C11.4949 16.0684 11.1679 16.3841 10.8409 16.7054C10.5872 16.9535 10.4237 16.9535 10.1757 16.711C9.87126 16.4066 9.56116 16.1135 9.26802 15.7978C9.12141 15.6343 8.98047 15.6005 8.76627 15.6624C7.2723 16.0852 5.77271 16.5024 4.27311 16.9196C3.69808 17.0774 3.4162 17.427 3.4162 18.0134C3.41056 19.0224 3.4162 20.0259 3.41056 21.0351C3.41056 21.2155 3.47821 21.2606 3.64734 21.2606C4.16036 21.255 4.67338 21.2493 5.19203 21.2606C5.3668 21.2663 5.42317 21.2099 5.42317 21.0351C5.4119 20.3586 5.41753 19.6821 5.42317 19.0056C5.42881 18.4925 5.34425 18.5658 5.89109 18.5489C6.07714 18.5433 6.13351 18.6052 6.13351 18.7913C6.12224 19.5242 6.13915 20.2571 6.12787 20.99C6.12223 21.1986 6.17861 21.2663 6.39848 21.2663C7.7515 21.2493 9.11581 21.255 10.4857 21.255ZM13.1917 10.6281C13.1917 9.88394 13.1917 9.88394 12.893 9.28069C12.8817 9.25814 12.8704 9.22998 12.8535 9.20743C12.7408 8.97627 12.7408 8.97627 12.5322 9.12848C11.3257 9.99672 9.76408 10.0192 8.55767 9.18487C8.26453 8.98195 8.25885 8.97627 8.10664 9.30325C8.00522 9.52313 7.81917 9.72045 7.81917 9.97416C7.81349 10.4477 7.80222 10.9156 7.84173 11.3892C7.94883 12.714 9.20035 13.9486 10.7676 13.7795C11.8838 13.6611 12.7858 12.9057 13.0847 11.8177C13.1974 11.4117 13.203 10.9889 13.1917 10.6281ZM9.15524 5.77977C9.25106 5.82486 9.31313 5.85306 9.37512 5.88125C9.71337 6.0391 10.0122 6.24769 10.2377 6.54648C10.5478 6.95802 10.4857 6.87346 10.1531 7.1046C9.83743 7.33011 9.89382 7.29628 9.68522 7.03131C9.27929 6.51829 8.73804 6.31534 8.11232 6.46755C7.51472 6.61413 7.17646 7.03132 7.06935 7.64017C6.99043 8.09118 7.20465 8.46326 7.40196 8.83534C7.45271 8.93684 7.50344 8.86917 7.53164 8.80718C7.6162 8.63802 7.69512 8.46326 7.79094 8.29977C7.93187 8.04043 8.15175 7.9897 8.38858 8.15883C8.55767 8.27721 8.71556 8.40689 8.87905 8.52527C9.69082 9.10593 10.5646 9.21871 11.5005 8.87477C11.9064 8.72822 12.2221 8.44634 12.566 8.19265C12.8648 7.97278 13.0734 8.02916 13.2481 8.35614C13.3384 8.52527 13.3947 8.71131 13.5244 8.86917C14.043 7.86004 13.6597 6.64232 12.6731 6.13493C12.3913 5.98836 12.098 5.86997 11.8162 5.72903C11.3088 5.47534 10.7788 5.3795 10.2151 5.43587C9.84871 5.46406 9.50477 5.57118 9.15524 5.77977ZM9.49917 14.7435C9.51605 14.8563 9.46534 14.9972 9.57804 15.1043C9.85431 15.375 10.1249 15.6456 10.3956 15.9218C10.4744 16.0007 10.5308 15.9951 10.6041 15.9162C10.8071 15.7076 10.9987 15.4933 11.2186 15.3073C11.4441 15.1156 11.5287 14.9014 11.5061 14.6082C11.4949 14.4335 11.4666 14.3715 11.275 14.4222C10.762 14.5519 10.2433 14.5518 9.73593 14.4278C9.55556 14.3827 9.46534 14.4109 9.49917 14.6138C9.50477 14.659 9.49917 14.6928 9.49917 14.7435ZM7.10317 10.8029C7.10317 10.4646 7.10317 10.459 6.88895 10.4646C6.63525 10.4646 6.47177 10.5943 6.46613 10.7803C6.46049 10.9777 6.63525 11.096 6.89459 11.1129C7.17082 11.1299 7.0919 10.9381 7.10317 10.8029ZM14.105 10.459C13.981 10.4421 13.857 10.4759 13.9078 10.6507C13.9528 10.8029 13.733 11.0791 14.0881 11.1016C14.3531 11.1186 14.5279 10.9889 14.5392 10.7916C14.5392 10.6056 14.3757 10.4702 14.105 10.459Z" fill="black"/>
</svg>
