<svg width="19" height="19" viewBox="0 0 19 19" fill="none" xmlns="http://www.w3.org/2000/svg">
<path d="M13.4291 14.3767C13.5598 14.5074 13.7232 14.5727 13.9029 14.5727C14.0826 14.5727 14.246 14.5074 14.3767 14.3767L18.7877 9.96565C18.8203 9.93298 18.853 9.9003 18.8693 9.86763C18.8693 9.86763 18.8857 9.85129 18.8857 9.83496C18.902 9.80228 18.9184 9.76961 18.9347 9.75327C18.9347 9.73693 18.9347 9.7206 18.951 9.7206C18.9674 9.68792 18.9674 9.67159 18.9837 9.63891C19 9.5899 19 9.55723 19 9.50821C19 9.4592 19 9.42653 18.9837 9.37752C18.9837 9.34484 18.9674 9.31217 18.951 9.29583C18.951 9.2795 18.951 9.26316 18.9347 9.26316C18.9184 9.23048 18.902 9.19781 18.8857 9.16514C18.8857 9.16514 18.8857 9.1488 18.8693 9.1488C18.853 9.11613 18.8203 9.08345 18.7877 9.05078L14.3767 4.63977C14.1153 4.37838 13.6905 4.37838 13.4291 4.63977C13.1677 4.90116 13.1677 5.32593 13.4291 5.58732L16.6965 8.85473H5.08086C4.70511 8.85473 4.41105 9.1488 4.41105 9.52455C4.41105 9.9003 4.70511 10.1944 5.08086 10.1944H16.6965L13.4291 13.4618C13.1677 13.6905 13.1677 14.1153 13.4291 14.3767Z" fill="#2C479E"/>
<path d="M0.669819 18.9673H9.49183C9.86758 18.9673 10.1617 18.6733 10.1617 18.2975V11.7137C10.1617 11.3379 9.86758 11.0439 9.49183 11.0439C9.11608 11.0439 8.82201 11.3379 8.82201 11.7137V17.6277H1.33964V1.33964H8.82201V7.25365C8.82201 7.62941 9.11608 7.92347 9.49183 7.92347C9.86758 7.92347 10.1617 7.62941 10.1617 7.25365V0.669819C10.1617 0.294067 9.86758 0 9.49183 0H0.669819C0.294067 0 0 0.294067 0 0.669819V18.2975C0.0163371 18.6733 0.310404 18.9673 0.669819 18.9673Z" fill="#2C479E"/>
</svg>
