<svg width="23" height="22" viewBox="0 0 23 22" fill="none" xmlns="http://www.w3.org/2000/svg">
<g clip-path="url(#clip0_29_2138)">
<path d="M15.1185 8.00575C15.1466 7.73882 15.0202 7.54214 14.7954 7.44379C14.4301 7.26115 14.135 7.44379 13.8822 7.71072C11.7467 9.8602 9.59723 11.9956 7.46177 14.1452C7.1527 14.4543 6.91386 14.8055 7.27913 15.1988C7.68656 15.6344 8.05184 15.3815 8.38902 15.0443C10.5104 12.9229 12.6319 10.8015 14.7533 8.68011C14.9218 8.46937 15.1185 8.28674 15.1185 8.00575Z" fill="black"/>
<path d="M8.45929 10.7313C9.52702 10.8014 10.4121 10.0006 10.4683 8.93294C10.5245 7.87926 9.69557 6.98012 8.65592 6.92392C7.65847 6.86773 6.70313 7.75282 6.66099 8.79245C6.61884 9.77592 7.43368 10.661 8.45929 10.7313ZM8.52949 8.21644C8.93696 8.20239 9.18983 8.39908 9.20387 8.82054C9.21791 9.22798 8.97907 9.43873 8.59977 9.48085C8.17826 9.45277 7.9535 9.22798 7.9535 8.82054C7.9535 8.45528 8.16422 8.23049 8.52949 8.21644Z" fill="black"/>
<path d="M21.8199 10.6188C21.3001 10.1131 20.8365 9.56513 20.3026 9.07342C19.9374 8.72219 19.7828 8.39906 19.8952 7.8652C20.0638 7.10655 20.12 6.3198 20.2324 5.46281C20.2746 4.9149 20.0919 4.64796 19.4597 4.50748C19.0382 4.40913 18.6027 4.28269 18.1812 4.28269C16.8887 4.29674 16.102 3.69263 15.6805 2.48441C15.54 2.07699 15.2871 1.71172 15.0904 1.33239C14.7954 0.784478 14.3739 0.629939 13.7839 0.924969C13.0955 1.2762 12.379 1.59932 11.6905 1.9646C11.2972 2.17534 10.96 2.18938 10.5667 1.97865C9.87824 1.59932 9.16174 1.29024 8.47333 0.939018C7.85518 0.61589 7.41966 0.798527 7.12462 1.38859C7.01224 1.59932 6.87174 1.78196 6.8015 2.00674C6.29573 3.52405 5.3123 4.24054 3.66857 4.39508C1.81409 4.56367 1.82814 4.70416 2.10912 6.54459C2.10912 6.57268 2.10912 6.60078 2.12317 6.62888C2.57274 7.93544 2.22151 8.91887 1.16783 9.87424C-0.391612 11.2932 -0.391611 11.4477 1.18189 12.8807C2.16532 13.7799 2.4744 14.6649 2.19341 15.9715C1.74384 18.0929 1.78599 18.2193 3.92145 18.4441C5.3404 18.5846 6.08499 19.2027 6.66101 20.4672C7.4899 22.3076 7.63039 22.3498 9.40058 21.3383C10.6088 20.6499 11.5922 20.6217 12.8145 21.3242C14.6128 22.3498 14.7392 22.3076 15.6102 20.411C16.1722 19.1747 16.9168 18.5986 18.2936 18.4582C20.4291 18.2334 20.4712 18.121 20.0217 15.9294C19.7828 14.7492 19.8952 13.808 20.9208 13.0634C21.272 12.8104 21.5249 12.4452 21.834 12.1361C22.3538 11.6022 22.3257 11.1246 21.8199 10.6188ZM19.853 11.8692C18.2936 12.951 17.9003 14.398 18.4763 16.1542C18.6308 16.6318 18.4903 16.8987 17.9986 16.8847C16.0598 16.8566 14.8095 17.7697 14.2335 19.6242C14.107 20.0458 13.8542 20.1862 13.4607 19.8912C13.4186 19.8631 13.3483 19.849 13.3062 19.821C11.831 18.7251 10.3699 18.7251 8.89483 19.835C8.44525 20.1722 8.10806 20.0879 7.95352 19.5259C7.93947 19.4978 7.91138 19.4838 7.91138 19.4557C7.36346 17.7276 6.18334 16.8987 4.38506 16.9268C3.76691 16.9409 3.58427 16.6459 3.78096 16.0558C4.32887 14.3559 3.9074 12.965 2.4182 11.9254C1.92648 11.5741 1.89838 11.2229 2.40415 10.8717C3.9074 9.80396 4.34291 8.38501 3.76691 6.65698C3.54212 6.01073 3.83715 5.82808 4.35697 5.82808C6.21144 5.85619 7.37751 4.95705 7.93947 3.22902C8.10806 2.69515 8.40313 2.54061 8.88079 2.89183C8.90887 2.90588 8.93695 2.91994 8.95099 2.93398C10.398 4.02981 11.8451 3.98766 13.2781 2.91994C13.7558 2.56871 14.093 2.63895 14.2896 3.24306C14.8516 4.98514 16.0458 5.84213 17.8862 5.82808C18.1812 5.82808 18.6589 5.79999 18.5044 6.39005C18.4903 6.44624 18.4763 6.50244 18.4622 6.55864C17.9143 8.31477 18.2655 9.77588 19.839 10.8576C20.2886 11.1808 20.3307 11.532 19.853 11.8692Z" fill="black"/>
<path d="M13.7418 12.0097C12.6741 11.9535 11.789 12.7683 11.7468 13.822C11.7047 14.8617 12.5476 15.7748 13.5873 15.817C14.5847 15.8591 15.5401 14.96 15.5681 13.9344C15.5823 12.951 14.7534 12.0659 13.7418 12.0097ZM13.6856 14.5245C13.2922 14.5385 13.0393 14.3418 13.0113 13.9204C12.9972 13.4989 13.2641 13.3303 13.5592 13.26C14.0369 13.3022 14.2616 13.5129 14.2616 13.9204C14.2616 14.2856 14.0509 14.5104 13.6856 14.5245Z" fill="black"/>
</g>
<defs>
<clipPath id="clip0_29_2138">
<rect width="22.8548" height="21.2223" fill="white" transform="translate(0 0.77771)"/>
</clipPath>
</defs>
</svg>
