<svg width="19" height="20" viewBox="0 0 19 20" fill="none" xmlns="http://www.w3.org/2000/svg">
<path d="M9.49277 18.9863C7.6297 18.9863 5.76664 18.9922 3.90357 18.9863C2.92768 18.9863 2.05825 18.6847 1.31893 18.04C0.567792 17.3776 0.136033 16.5436 0.0295725 15.5441C0 15.2483 0 14.9526 0 14.6569C0 11.3921 0 8.12136 0 4.85656C0 3.95164 0.248409 3.1177 0.82803 2.40796C1.54368 1.5267 2.46635 1.01805 3.60784 0.96482C3.74388 0.958906 3.79119 0.917504 3.82077 0.781471C3.9154 0.326055 4.29393 0.0185006 4.74934 0.000757059C5.16927 -0.0169864 5.58329 0.278739 5.69566 0.722326C5.74889 0.917504 5.8317 0.970735 6.02688 0.970735C6.77802 0.958906 7.53507 0.96482 8.28621 0.970735C8.44591 0.970735 8.51688 0.917504 8.55828 0.757813C8.66474 0.308311 9.07284 -0.00515744 9.5046 0.00667156C9.94227 0.0185006 10.3326 0.32014 10.4332 0.757813C10.4687 0.923419 10.5396 0.970735 10.7052 0.970735C11.48 0.96482 12.2548 0.96482 13.0356 0.970735C13.1952 0.970735 13.2485 0.91159 13.2899 0.769642C13.42 0.296482 13.8163 -0.0110719 14.2539 0.00667156C14.7153 0.0244151 15.0879 0.331969 15.1825 0.811043C15.2121 0.947077 15.2712 0.970735 15.3895 0.976649C17.2526 1.05945 18.8022 2.54399 18.9678 4.40706C18.9915 4.6673 18.9974 4.92162 18.9974 5.18186C18.9974 8.49398 19.0033 11.8061 18.9974 15.1182C18.9974 16.7506 18.0511 18.1524 16.5724 18.7379C16.0934 18.9272 15.5906 19.01 15.0761 19.01C13.213 18.9863 11.3558 18.9863 9.49277 18.9863ZM9.47503 17.0168C11.3736 17.0168 13.2721 17.0227 15.1766 17.0168C16.2353 17.0109 17.0278 16.2242 17.0338 15.1655C17.0397 11.6996 17.0397 8.23374 17.0338 4.76784C17.0338 3.79787 16.3713 3.04672 15.4132 2.90478C15.289 2.88703 15.218 2.89886 15.1825 3.05264C15.082 3.51988 14.7212 3.81561 14.2835 3.82744C13.7808 3.83335 13.4259 3.57903 13.2899 3.08221C13.2485 2.92843 13.1834 2.88703 13.0296 2.88703C12.2608 2.89295 11.4919 2.89295 10.723 2.88703C10.5574 2.88703 10.4746 2.93435 10.4332 3.10587C10.3267 3.54354 9.96002 3.82152 9.51052 3.82152C9.04918 3.82152 8.67066 3.55537 8.56419 3.10587C8.52279 2.93435 8.4459 2.88112 8.2803 2.88112C7.52916 2.88703 6.7721 2.88703 6.02096 2.88112C5.83761 2.88112 5.74889 2.92843 5.70158 3.1177C5.57737 3.57903 5.19884 3.83335 4.70203 3.81561C4.28801 3.80378 3.9154 3.50214 3.82668 3.06447C3.79119 2.88703 3.72022 2.86929 3.57236 2.89295C2.60238 3.06447 1.97544 3.79195 1.97544 4.77376C1.96953 8.22783 1.97544 11.676 1.97544 15.13C1.97544 15.2602 1.98136 15.3962 2.00502 15.5263C2.19428 16.4135 2.91585 17.0049 3.82668 17.0049C5.70749 17.0227 7.59422 17.0168 9.47503 17.0168Z" fill="#2C479E"/>
<path d="M8.51704 9.00853C8.51704 8.24556 8.51113 7.4885 8.51704 6.72553C8.52296 6.21097 8.80685 5.82061 9.24453 5.70824C9.90104 5.53672 10.4747 6.01579 10.4807 6.74327C10.4866 8.25739 10.4807 9.7715 10.4807 11.2856C10.4807 11.3211 10.4807 11.3625 10.4747 11.398C10.4333 11.8002 10.2559 12.1196 9.85963 12.2733C9.50476 12.4094 9.16172 12.368 8.86008 12.1136C8.60576 11.9007 8.51113 11.6109 8.50521 11.2856C8.51704 10.5286 8.51704 9.76558 8.51704 9.00853Z" fill="#2C479E"/>
<path d="M9.4927 15.1774C8.94857 15.1774 8.51681 14.7456 8.51681 14.2074C8.52273 13.681 8.97223 13.2374 9.50453 13.2433C10.0309 13.2493 10.4863 13.7047 10.4745 14.2192C10.4745 14.7634 10.0428 15.1774 9.4927 15.1774Z" fill="#2C479E"/>
</svg>
