<svg width="13" height="15" viewBox="0 0 13 15" fill="none" xmlns="http://www.w3.org/2000/svg">
<path d="M6.49999 9.09715C3.99305 9.09715 1.95142 7.05551 1.95142 4.54858C1.95142 2.04164 3.99305 0 6.49999 0C9.00693 0 11.0486 2.04164 11.0486 4.54858C11.0486 7.05551 9.00693 9.09715 6.49999 9.09715ZM6.49999 1.2962C4.71 1.2962 3.25237 2.75383 3.25237 4.54383C3.25237 6.33382 4.71 7.79145 6.49999 7.79145C8.28998 7.79145 9.74762 6.33382 9.74762 4.54383C9.74762 2.75383 8.28998 1.2962 6.49999 1.2962Z" fill="black"/>
<path d="M13 14.2961H11.6991C11.6991 11.4284 9.36779 9.09709 6.5 9.09709C3.63221 9.09709 1.30095 11.4284 1.30095 14.2961H0C0 10.7114 2.91527 7.79614 6.5 7.79614C10.0847 7.79614 13 10.7114 13 14.2961Z" fill="black"/>
</svg>
