<svg width="17" height="19" viewBox="0 0 17 19" fill="none" xmlns="http://www.w3.org/2000/svg">
<path d="M16.2356 10.9209L15.3256 10.39C14.3397 9.78332 14.3397 8.34237 15.3256 7.73565L16.2356 7.20477C16.994 6.74973 17.2216 5.83966 16.7665 5.1571L16.0081 3.86782C15.5531 3.10943 14.643 2.88191 13.9605 3.33695L13.0504 3.86782C12.0645 4.47454 10.7752 3.71614 10.7752 2.57855V1.51679C10.7752 0.682557 10.0926 0 9.2584 0H7.7416C6.90737 0 6.22481 0.682557 6.22481 1.51679V2.50271C6.22481 3.6403 4.93553 4.3987 3.94962 3.79198L3.03954 3.33695C2.28115 2.88191 1.37107 3.18527 0.991871 3.86782L0.233474 5.1571C-0.145724 5.9155 0.0817949 6.82557 0.764352 7.28061L1.67443 7.81149C2.66034 8.34237 2.66034 9.85916 1.67443 10.39L0.764352 10.9209C0.00595517 11.376 -0.221564 12.286 0.233474 12.9686L0.991871 14.2579C1.44691 15.0163 2.35699 15.2438 3.03954 14.7887L3.94962 14.3337C4.93553 13.727 6.22481 14.4854 6.22481 15.623V16.6847C6.22481 17.519 6.90737 18.2015 7.7416 18.2015H9.2584C10.0926 18.2015 10.7752 17.519 10.7752 16.6847V15.6988C10.7752 14.5612 12.0645 13.8028 13.0504 14.4095L13.9605 14.9404C14.7189 15.3955 15.6289 15.0921 16.0081 14.4095L16.7665 13.1203C17.1457 12.286 16.9182 11.376 16.2356 10.9209ZM8.5 12.1343C6.83153 12.1343 5.46641 10.7692 5.46641 9.10076C5.46641 7.43229 6.83153 6.06717 8.5 6.06717C10.1685 6.06717 11.5336 7.43229 11.5336 9.10076C11.5336 10.7692 10.1685 12.1343 8.5 12.1343Z" fill="#2C479E"/>
</svg>
