<svg width="18" height="19" viewBox="0 0 18 19" fill="none" xmlns="http://www.w3.org/2000/svg">
<path d="M12.4524 18.0088C8.72771 18.0088 5.00293 18.0088 1.27819 18.0088C1.22987 17.9912 1.18155 17.9692 1.12885 17.9561C0.434846 17.732 0 17.1434 0 16.4099C0 11.4773 0 6.54027 0 1.60322C0 1.4978 0.00439239 1.39239 0.0263543 1.29136C0.193265 0.509517 0.816984 0.00439238 1.62079 0.00439238C4.59883 0.00439238 7.58126 0.00878474 10.5593 0C11.0732 0 11.4905 0.175696 11.8463 0.535871C12.2899 0.983896 12.7379 1.43192 13.186 1.87555C13.5505 2.23572 13.735 2.6574 13.7306 3.18008C13.7174 4.44071 13.7262 5.69693 13.7262 6.95754C13.7262 7.02343 13.7042 7.0981 13.7613 7.17716C13.8097 7.12884 13.858 7.08931 13.9019 7.04539C14.3412 6.60615 14.776 6.16252 15.2197 5.72767C15.9005 5.06003 16.8096 5.01611 17.4949 5.61787C17.7584 5.85066 17.9034 6.15373 18 6.48317C18 6.694 18 6.90483 18 7.11567C17.8902 7.55051 17.6135 7.87994 17.3016 8.18738C16.1596 9.32065 15.0263 10.4627 13.8843 11.6003C13.7702 11.7145 13.7262 11.8287 13.7262 11.9869C13.7306 13.4802 13.7306 14.9736 13.7262 16.4671C13.7262 16.8448 13.5901 17.1742 13.3485 17.4641C13.1157 17.7496 12.7994 17.9034 12.4524 18.0088ZM1.08052 9.01317C1.08052 11.4246 1.08052 13.836 1.08052 16.2518C1.08052 16.7526 1.2694 16.9414 1.77452 16.9414C5.16984 16.9414 8.56514 16.9414 11.9605 16.9414C12.4568 16.9414 12.6501 16.7482 12.6501 16.2475C12.6501 15.2284 12.6501 14.2094 12.6501 13.1903C12.6501 13.0981 12.694 12.9751 12.6281 12.9224C12.5579 12.8653 12.4832 12.9839 12.3997 13.0102C11.653 13.2563 10.9151 13.511 10.1684 13.7482C9.88724 13.8404 9.61495 13.7131 9.50073 13.4714C9.42169 13.3001 9.44362 13.1289 9.50073 12.9575C9.72033 12.3031 9.94001 11.6486 10.1552 10.9942C10.2211 10.7921 10.3221 10.6252 10.4714 10.4803C11.1523 9.80378 11.8287 9.12297 12.5095 8.44658C12.6017 8.35429 12.6501 8.25766 12.6501 8.12591C12.6457 6.90923 12.6457 5.68814 12.6501 4.47145C12.6501 4.30014 12.593 4.25183 12.4261 4.25183C11.6486 4.26062 10.8668 4.25622 10.0893 4.25622C9.68965 4.25622 9.48314 4.05417 9.48314 3.65447C9.48314 2.89458 9.48314 2.13031 9.48314 1.37042C9.48314 1.0937 9.48314 1.0937 9.21526 1.0937C6.73792 1.0937 4.26062 1.0937 1.78331 1.0937C1.70864 1.0937 1.62957 1.0937 1.55491 1.10689C1.27819 1.14641 1.14202 1.28257 1.0981 1.56808C1.08492 1.66032 1.08492 1.75256 1.08492 1.8492C1.08052 4.23426 1.08052 6.62372 1.08052 9.01317ZM15.4393 8.47293C15.4348 8.4114 15.3997 8.38064 15.3646 8.34995C15.1976 8.18305 15.0307 8.0205 14.8682 7.85359C14.7891 7.77013 14.7321 7.77891 14.653 7.85798C13.8931 8.62225 13.1332 9.38217 12.3734 10.142C12.2943 10.2211 12.2899 10.2826 12.3689 10.3616C12.5359 10.5242 12.7028 10.6911 12.8653 10.858C12.9444 10.9415 13.0102 10.9283 13.0849 10.8492C13.8448 10.0849 14.6047 9.32506 15.3646 8.56514C15.3953 8.53437 15.4172 8.49927 15.4393 8.47293ZM11.6003 3.16691C11.899 3.16691 12.1976 3.16691 12.4963 3.16691C12.615 3.16691 12.6545 3.12738 12.6281 3.00878C12.6017 2.87701 12.5315 2.7716 12.4392 2.67936C11.9824 2.21816 11.5212 1.76135 11.06 1.30454C10.9721 1.21669 10.8755 1.14641 10.7482 1.11566C10.6208 1.08492 10.5637 1.11127 10.5637 1.25622C10.568 1.83602 10.568 2.41581 10.5637 2.99122C10.5637 3.13177 10.6252 3.1757 10.757 3.17131C11.0381 3.16252 11.3192 3.16691 11.6003 3.16691ZM16.9151 6.79063C16.9151 6.57979 16.8185 6.43045 16.6295 6.3426C16.4451 6.25915 16.2606 6.27672 16.1069 6.41288C15.94 6.56223 15.7907 6.72474 15.6325 6.87848C15.571 6.93997 15.5666 6.99268 15.6325 7.05857C15.8126 7.23426 15.9883 7.41435 16.164 7.59004C16.2167 7.64275 16.2694 7.66033 16.3265 7.59883C16.489 7.43192 16.6559 7.2694 16.8185 7.0981C16.8975 7.01464 16.9151 6.90483 16.9151 6.79063ZM12.1713 11.7365C12.1538 11.7101 12.1449 11.6881 12.1274 11.675C11.9385 11.4861 11.7497 11.2928 11.5564 11.104C11.5212 11.0689 11.4817 11.0424 11.4334 11.0864C11.3499 11.1655 11.2445 11.2358 11.205 11.3456C11.104 11.631 11.0117 11.9209 10.9151 12.2109C10.8844 12.3031 10.9019 12.3514 11.0117 12.3163C11.3016 12.2196 11.5915 12.1318 11.8726 12.0264C12.0044 11.9693 12.0922 11.855 12.1713 11.7365Z" fill="black"/>
<path d="M6.33369 5.27514C7.56356 5.27514 8.79347 5.27514 10.0233 5.27514C10.4537 5.27514 10.7129 5.70999 10.5021 6.07895C10.3966 6.26343 10.2385 6.35128 10.0233 6.35128C9.54889 6.35128 9.07451 6.35128 8.60013 6.35128C6.62799 6.35128 4.6558 6.35128 2.67923 6.35128C2.33662 6.35128 2.10822 6.13605 2.10822 5.8198C2.10383 5.50355 2.32344 5.27514 2.64409 5.27075C3.17557 5.26636 3.71144 5.27075 4.24292 5.27075C4.93692 5.27514 5.6353 5.27514 6.33369 5.27514Z" fill="black"/>
<path d="M5.2882 8.46422C4.40533 8.46422 3.51807 8.46422 2.6352 8.46422C2.36287 8.46422 2.14325 8.26655 2.10811 8.01617C2.07298 7.73945 2.21793 7.49348 2.47708 7.41002C2.54296 7.38806 2.61324 7.38806 2.68351 7.38806C4.41851 7.38806 6.14911 7.38806 7.8841 7.38806C8.23108 7.38806 8.45952 7.60768 8.4551 7.9371C8.45068 8.25338 8.22674 8.46856 7.8841 8.46856C7.02319 8.46422 6.1579 8.46422 5.2882 8.46422Z" fill="black"/>
<path d="M5.27516 10.5725C4.39669 10.5725 3.51821 10.5725 2.63973 10.5725C2.3674 10.5725 2.14778 10.3792 2.11264 10.1289C2.07312 9.85217 2.21806 9.60614 2.47722 9.51835C2.54749 9.49634 2.61338 9.49634 2.68365 9.49634C4.41865 9.49634 6.14925 9.49634 7.88424 9.49634C8.2356 9.49634 8.45961 9.7116 8.45961 10.041C8.45961 10.3661 8.23126 10.5769 7.87546 10.5769C7.01016 10.5725 6.14486 10.5725 5.27516 10.5725Z" fill="black"/>
<path d="M5.27551 12.6808C4.39704 12.6808 3.51856 12.6808 2.64008 12.6808C2.36775 12.6808 2.14813 12.4876 2.11299 12.2329C2.07347 11.9561 2.2228 11.7101 2.47757 11.6223C2.54784 11.6003 2.61373 11.6003 2.684 11.6003C4.419 11.6003 6.1496 11.6003 7.88459 11.6003C8.23601 11.6003 8.46003 11.8156 8.46003 12.145C8.46003 12.4701 8.23159 12.6808 7.87581 12.6808C7.01051 12.6808 6.14081 12.6808 5.27551 12.6808Z" fill="black"/>
<path d="M8.44211 15.9137C7.92824 15.9137 7.40994 15.9137 6.89603 15.9137C6.55781 15.9137 6.32941 15.6984 6.32501 15.3822C6.32063 15.0571 6.54903 14.8375 6.89603 14.8375C7.92824 14.8375 8.95609 14.8375 9.98831 14.8375C10.3396 14.8375 10.5681 15.0528 10.5681 15.3778C10.5681 15.7028 10.3396 15.9137 9.98831 15.918C9.46999 15.9137 8.95609 15.9137 8.44211 15.9137Z" fill="black"/>
</svg>
