<svg width="20" height="25" viewBox="0 0 20 25" fill="none" xmlns="http://www.w3.org/2000/svg">
<path d="M13.4719 25C11.9777 24.2316 10.4775 23.4632 8.98947 22.6887C8.51989 22.4448 8.37963 22.0179 8.59917 21.5361C8.72724 21.2556 8.8797 20.9872 9.01997 20.7128C9.62372 19.5358 10.2336 18.3588 10.8373 17.1818C10.9898 16.883 11.191 16.6512 11.5386 16.6024C11.8558 16.5597 12.118 16.6756 12.3071 16.9256C12.5083 17.1879 12.5327 17.4867 12.3863 17.7794C12.0875 18.3832 11.7765 18.9808 11.4655 19.5785C11.1605 20.17 10.8617 20.7677 10.5446 21.3532C10.4531 21.53 10.4897 21.6032 10.6605 21.6886C11.7277 22.2313 12.7827 22.7802 13.8439 23.3291C14.0024 23.4083 14.1671 23.4815 14.2952 23.6096C14.7099 24.0365 14.6001 24.7378 13.9597 25C13.7951 25 13.6365 25 13.4719 25Z" fill="#2C479E"/>
<path d="M0 12.4615C0.0670834 8.32064 2.61015 4.78962 6.39122 3.39306C6.88519 3.21011 7.34258 3.39916 7.52553 3.85045C7.70239 4.28954 7.48894 4.75913 6.98887 4.94208C5.82406 5.36897 4.79951 6.01541 3.94572 6.91189C2.67114 8.24136 1.92712 9.82087 1.72587 11.6565C1.32947 15.2607 3.44565 18.7003 6.78152 19.9931C6.90959 20.0419 7.04375 20.0907 7.15963 20.1578C7.51944 20.3591 7.6719 20.7981 7.51944 21.1641C7.35478 21.5666 6.95837 21.7861 6.54978 21.6641C5.60451 21.3775 4.75072 20.9079 3.96402 20.3225C2.16496 18.9808 0.951364 17.2244 0.341515 15.0595C0.109773 14.2118 0.024394 13.3397 0 12.4615Z" fill="#2C479E"/>
<path d="M19.4299 12.6262C19.3324 15.6328 18.1127 18.2002 15.6611 20.1639C14.8744 20.7921 13.9962 21.2678 13.0509 21.6154C12.6118 21.78 12.2032 21.6703 11.9898 21.3348C11.6849 20.8592 11.8617 20.3103 12.4045 20.0969C13.0082 19.8529 13.5998 19.5907 14.1426 19.2248C16.149 17.8587 17.3443 15.9682 17.6858 13.5776C18.1798 10.0526 16.2099 6.58871 12.9595 5.15556C12.7643 5.07018 12.5631 5.0031 12.374 4.91772C11.9349 4.72257 11.7459 4.27128 11.9166 3.85048C12.0874 3.42359 12.5326 3.21624 12.9777 3.3809C15.3135 4.23469 17.0759 5.75931 18.2712 7.93647C19.0457 9.35742 19.3873 10.8942 19.4299 12.6262Z" fill="#2C479E"/>
<path d="M5.72655 0.00229899C5.88511 -0.00989799 6.03147 0.0449884 6.17174 0.11817C7.59268 0.849989 9.01973 1.58181 10.4346 2.32582C10.9225 2.58196 11.0749 3.02715 10.8249 3.51503C10.0687 4.99086 9.31246 6.4667 8.53795 7.93033C8.25742 8.4609 7.65977 8.58287 7.24507 8.22306C6.93405 7.95473 6.87306 7.54613 7.08651 7.13753C7.66586 6.00931 8.25132 4.88719 8.83068 3.75897C8.98924 3.44794 8.98924 3.44794 8.67211 3.28329C7.56219 2.71003 6.45227 2.13067 5.34234 1.55741C5.03742 1.39885 4.88495 1.13662 4.89105 0.807299C4.89105 0.508473 5.03742 0.264534 5.30575 0.105973C5.43382 0.0266929 5.57408 -0.00989799 5.72655 0.00229899Z" fill="#2C479E"/>
</svg>
