<svg width="22" height="22" viewBox="0 0 22 22" fill="none" xmlns="http://www.w3.org/2000/svg">
<path d="M10.9937 21.9596C9.69083 21.9596 8.388 21.9596 7.07927 21.9596C5.91202 21.9596 4.98058 21.0163 4.97468 19.8491C4.97468 18.7585 4.96879 17.6679 4.98058 16.5773C4.98058 16.3709 4.93342 16.2884 4.7153 16.3002C4.24368 16.3179 4.30853 16.253 4.30263 16.7187C4.30263 16.9015 4.29674 17.0901 4.30263 17.2729C4.30853 17.4556 4.26726 17.6148 4.08451 17.6915C3.90766 17.7681 3.75438 17.7091 3.61879 17.5853C3.31224 17.3201 3.00569 17.0548 2.69914 16.7954C2.22753 16.3945 1.75591 15.9936 1.29019 15.5869C1.00722 15.3393 1.00133 15.127 1.2843 14.8853C2.06246 14.2074 2.84652 13.5412 3.63058 12.8692C3.77207 12.7454 3.92534 12.6982 4.0963 12.7749C4.26726 12.8515 4.30853 13.0048 4.30263 13.1816C4.29674 13.4469 4.30263 13.7122 4.29674 13.9775C4.29674 14.1131 4.34979 14.1602 4.47949 14.1602C5.0808 14.1543 4.96879 14.2192 4.97468 13.6945C4.98058 13.1286 4.96879 12.5567 4.98058 11.9908C4.98647 11.7668 4.92752 11.7019 4.69761 11.7019C3.31814 11.7314 2.15089 11.2303 1.23714 10.2164C0.0522039 8.90173 -0.289717 7.3513 0.246745 5.67117C0.783207 3.99694 1.97403 2.97117 3.68364 2.56441C4.00787 2.48777 4.338 2.47008 4.66813 2.47598C4.97468 2.48187 4.97468 2.47598 4.97468 2.18122C4.98058 1.07882 5.65853 0.247598 6.73145 0.0294759C6.83756 0.00589519 6.94957 0.00589519 7.06158 0.00589519C9.69083 0 12.3201 0 14.9493 0C16.0871 0 17.0244 0.949125 17.0303 2.0869C17.0362 3.3013 17.0362 4.51571 17.0244 5.73602C17.0244 5.94235 17.0716 6.02488 17.2897 6.01309C17.7613 5.9954 17.6965 6.06025 17.7024 5.59453C17.7024 5.40589 17.7083 5.21134 17.7024 5.0227C17.6965 4.84584 17.7496 4.69846 17.9205 4.62183C18.0856 4.55108 18.2389 4.59235 18.3685 4.71025C18.6751 4.97554 18.9816 5.23493 19.2941 5.50021C19.7598 5.89519 20.2255 6.29016 20.6854 6.69693C21.0155 6.9858 21.0155 7.18034 20.6971 7.45741C19.9367 8.11767 19.1644 8.77204 18.398 9.4323C18.2506 9.5561 18.0974 9.62094 17.9146 9.53841C17.7319 9.45588 17.7024 9.29671 17.7083 9.11396C17.7142 8.85457 17.7083 8.60108 17.7142 8.34169C17.7142 8.2061 17.667 8.15894 17.5314 8.15894C16.9301 8.16483 17.0421 8.09999 17.0362 8.61876C17.0303 9.05501 17.0362 9.48535 17.0362 9.9216C17.0362 10.2458 17.0362 10.2517 17.3605 10.2458C18.6692 10.234 19.7775 10.7116 20.6912 11.6371C22.8076 13.7829 22.2829 17.4203 19.6537 18.8882C18.9404 19.289 18.174 19.4954 17.3487 19.4718C17.0421 19.4659 17.0421 19.4718 17.0421 19.7666C17.0362 20.8631 16.3583 21.7002 15.2854 21.9183C15.1616 21.9419 15.0378 21.9419 14.914 21.9419C13.5993 21.9596 12.2965 21.9596 10.9937 21.9596ZM8.08734 14.1484C8.79476 14.1484 9.50219 14.1484 10.2096 14.1484C10.5515 14.1484 10.6635 14.2605 10.6635 14.5965C10.6635 14.9915 10.6635 15.3923 10.6635 15.7873C10.6635 16.2 10.5692 16.3002 10.1624 16.3002C8.76529 16.3002 7.36223 16.3061 5.96508 16.2943C5.77053 16.2943 5.71158 16.3474 5.71158 16.5419C5.71748 17.5853 5.71158 18.6347 5.71748 19.6781C5.72337 20.415 6.08298 20.9456 6.70787 21.1342C6.92599 21.1991 7.1559 21.2168 7.38582 21.2168C7.87512 21.2109 7.79848 21.258 7.81027 20.81C7.82206 20.2794 8.27009 19.8078 8.78887 19.8019C10.2686 19.796 11.7483 19.796 13.2338 19.8019C13.7172 19.8019 14.1653 20.25 14.2006 20.7275C14.236 21.2168 14.236 21.2168 14.743 21.2109C15.645 21.1991 16.1932 20.7098 16.2875 19.8196C16.3347 19.3834 16.3347 19.3834 15.922 19.2478C13.9354 18.5934 12.5028 16.6598 12.7799 14.3548C13.0157 12.374 14.1594 11.0535 16.0635 10.4286C16.2345 10.3755 16.2993 10.3048 16.2934 10.122C16.2817 9.5561 16.2817 8.99016 16.2934 8.41833C16.2993 8.2061 16.2404 8.14125 16.0223 8.14125C14.6074 8.15304 13.1926 8.14715 11.7777 8.14715C11.4594 8.14715 11.3415 8.02924 11.3356 7.70501C11.3356 7.31003 11.3356 6.90916 11.3356 6.51418C11.3356 6.08973 11.4299 5.9954 11.8544 5.9954C13.2515 5.9954 14.6546 5.9954 16.0517 5.9954C16.1932 5.9954 16.2875 5.98361 16.2875 5.80086C16.2816 4.59825 16.2934 3.40152 16.2817 2.1989C16.2758 1.48559 15.869 0.960915 15.25 0.789955C15.0967 0.748689 14.9847 0.772269 14.8727 0.890173C14.5308 1.24388 14.1712 1.58581 13.8293 1.93952C13.6996 2.07511 13.5581 2.13995 13.3635 2.13995C11.7777 2.13406 10.1978 2.13406 8.61201 2.13995C8.42926 2.13995 8.28778 2.081 8.16398 1.95131C7.81616 1.5917 7.45656 1.24388 7.10285 0.884278C6.99673 0.778165 6.89062 0.748689 6.74914 0.789955C6.13014 0.972706 5.72927 1.51506 5.71748 2.24607C5.71158 2.58209 5.71158 2.58209 6.02992 2.68231C8.60612 3.50764 9.93843 6.29606 8.93625 8.78972C8.3821 10.1692 7.36813 11.083 5.9356 11.5133C5.77643 11.5605 5.71158 11.6253 5.71158 11.8022C5.72337 12.5037 5.72337 13.1993 5.71158 13.9008C5.70569 14.1013 5.77643 14.1484 5.96508 14.1484C6.6725 14.1426 7.37992 14.1484 8.08734 14.1484ZM4.8332 3.24235C2.93495 3.10676 0.830368 4.55108 0.777312 7.05064C0.736045 8.99605 2.23932 10.8825 4.56202 10.9474C6.50154 11.0004 8.41747 9.53841 8.49411 7.18034C8.56485 5.00501 6.83756 3.3072 4.8332 3.24235ZM13.4991 14.8971C13.5699 17.0901 15.2441 18.7467 17.4017 18.7349C19.5594 18.7172 21.2277 17.0312 21.2336 14.8853C21.2395 12.7041 19.5476 11.0358 17.4194 11.0181C15.1851 10.9886 13.5404 12.7218 13.4991 14.8971ZM18.4452 5.78907C18.4452 5.98361 18.4452 6.1251 18.4452 6.26069C18.4452 6.65567 18.345 6.75588 17.9441 6.75588C16.2875 6.75588 14.631 6.75588 12.9686 6.75588C12.7327 6.75588 12.4969 6.76178 12.2611 6.75588C12.1314 6.75588 12.0666 6.79715 12.0725 6.93274C12.0784 6.99759 12.0725 7.06243 12.0725 7.13318C12.0725 7.43383 12.0725 7.43383 12.3731 7.43383C14.236 7.43383 16.0989 7.43383 17.9677 7.43383C18.3332 7.43383 18.4334 7.54584 18.4393 7.91134C18.4393 8.05872 18.4157 8.21199 18.4629 8.37706C18.9286 7.98208 19.3648 7.5989 19.807 7.2216C19.9249 7.12138 19.9131 7.05064 19.8011 6.95632C19.3707 6.57903 18.9286 6.20174 18.4452 5.78907ZM3.55984 16.5301C3.55984 16.3356 3.55984 16.1882 3.55984 16.0408C3.55984 15.6753 3.66595 15.5633 4.03145 15.5633C5.36966 15.5633 6.71376 15.5633 8.05197 15.5633C8.60612 15.5633 9.15437 15.5574 9.70852 15.5633C9.87358 15.5633 9.94433 15.5102 9.92664 15.3452C9.92074 15.2921 9.92664 15.245 9.92664 15.1919C9.92664 14.8853 9.92664 14.8794 9.6083 14.8794C7.82795 14.8794 6.04171 14.8794 4.26137 14.8794C3.58342 14.8794 3.55984 14.8559 3.55984 14.1897C3.55984 14.1131 3.58932 14.0305 3.52447 13.948C3.07054 14.3371 2.6284 14.7203 2.18037 15.0976C2.06836 15.1919 2.09194 15.2626 2.19216 15.3452C2.6343 15.7284 3.07643 16.1115 3.55984 16.5301ZM13.9884 0.748689C11.9782 0.748689 10.0269 0.748689 7.99891 0.748689C8.21114 0.95502 8.388 1.11419 8.55896 1.28515C8.64738 1.37358 8.74171 1.41484 8.8714 1.41484C10.2921 1.40895 11.7129 1.41484 13.1336 1.41484C13.2162 1.41484 13.2987 1.42664 13.3635 1.36179C13.564 1.16725 13.7585 0.972706 13.9884 0.748689ZM11.0055 21.2227C11.7541 21.2227 12.5087 21.2227 13.2574 21.2227C13.4048 21.2227 13.4696 21.1873 13.4696 21.0222C13.4638 20.6862 13.3282 20.5447 12.9803 20.5447C11.6598 20.5447 10.3452 20.5447 9.02468 20.5447C8.93625 20.5447 8.84782 20.5506 8.76529 20.586C8.59433 20.6626 8.48821 20.9043 8.54717 21.1166C8.59433 21.2993 8.7535 21.2168 8.85961 21.2227C9.57882 21.2286 10.2921 21.2227 11.0055 21.2227Z" fill="black"/>
<path d="M11.6952 5.33516C11.0703 5.33516 10.4455 5.32927 9.82056 5.34106C9.62602 5.34696 9.56707 5.27621 9.57297 5.08757C9.59065 4.52163 9.51401 4.60416 10.0505 4.60416C11.2295 4.59827 12.4027 4.61006 13.5817 4.59827C13.7939 4.59827 13.8588 4.66311 13.8529 4.87534C13.8352 5.40591 13.9059 5.33516 13.3989 5.34106C12.833 5.34106 12.2671 5.33516 11.6952 5.33516Z" fill="black"/>
<path d="M10.298 16.9782C10.9288 16.9782 11.5655 16.9841 12.1963 16.9723C12.3731 16.9723 12.4439 17.0253 12.438 17.2081C12.4203 17.7976 12.5028 17.7092 11.9546 17.7092C10.7873 17.7151 9.61419 17.7033 8.44694 17.7151C8.22882 17.7151 8.14629 17.6561 8.15808 17.4321C8.18166 16.9074 8.10502 16.9782 8.6238 16.9723C9.17795 16.9782 9.73799 16.9782 10.298 16.9782Z" fill="black"/>
<path d="M11.7129 19.0886C11.3062 19.0886 10.9053 19.0827 10.4985 19.0886C10.3393 19.0886 10.2745 19.0355 10.2804 18.8705C10.2922 18.2456 10.1979 18.3222 10.8051 18.3163C11.4948 18.3104 12.1845 18.3222 12.8802 18.3104C13.0747 18.3104 13.1514 18.3694 13.1455 18.5757C13.1278 19.1593 13.2162 19.0709 12.6385 19.0768C12.3319 19.0886 12.0195 19.0886 11.7129 19.0886Z" fill="black"/>
<path d="M13.1278 3.92028C12.721 3.92028 12.3201 3.91439 11.9134 3.92028C11.7542 3.92618 11.6953 3.86723 11.6953 3.70216C11.707 3.08317 11.6245 3.18928 12.2022 3.18339C12.9038 3.17749 13.5994 3.18928 14.3009 3.17749C14.5014 3.17749 14.5721 3.23644 14.5662 3.44277C14.5485 3.99692 14.6252 3.91439 14.0828 3.92028C13.7586 3.92618 13.4402 3.92028 13.1278 3.92028Z" fill="black"/>
<path d="M3.61875 8.13531C3.81329 8.09404 3.95478 8.15299 4.02552 8.41827C4.10805 8.72482 4.45587 8.8722 4.7801 8.80736C5.08076 8.7484 5.31067 8.47133 5.31656 8.16478C5.32246 7.86413 5.10434 7.56937 4.80368 7.50452C4.6622 7.47504 4.50892 7.47504 4.36744 7.45146C3.79561 7.35125 3.30041 6.83836 3.21788 6.27832C3.12355 5.63575 3.41831 5.02265 3.97836 4.76326C4.21416 4.65715 4.30849 4.52745 4.26722 4.27985C4.25543 4.21501 4.27312 4.14426 4.26722 4.07942C4.25543 3.93793 4.32028 3.88488 4.46176 3.88488C5.12202 3.89077 4.99822 3.82003 5.00412 4.39186C5.00412 4.55103 5.04538 4.63946 5.20456 4.7102C5.65848 4.89885 5.92966 5.24666 6.04757 5.72417C6.11241 5.99535 6.07704 6.03662 5.80586 6.04251C5.73512 6.04251 5.65848 6.03662 5.58774 6.04251C5.41089 6.0602 5.32835 6.00125 5.28119 5.8185C5.21045 5.52374 4.87442 5.31741 4.58556 5.35278C4.23774 5.39404 3.97246 5.67701 3.96067 6.01893C3.94888 6.32548 4.18469 6.62024 4.49713 6.68509C4.63862 6.71457 4.79189 6.71457 4.93338 6.73815C5.5111 6.85605 6.0004 7.36893 6.06525 7.92897C6.14189 8.57744 5.85303 9.17286 5.28119 9.42635C5.05718 9.52657 4.97464 9.64447 5.01001 9.87439C5.0218 9.94513 5.00412 10.0218 5.01001 10.0925C5.0218 10.234 4.96285 10.2929 4.81547 10.287C4.15521 10.2812 4.27901 10.3519 4.27312 9.78006C4.27312 9.60321 4.21416 9.52067 4.05499 9.45583C3.66002 9.29076 3.40063 8.98421 3.26504 8.58334C3.13534 8.20015 3.18251 8.13531 3.61875 8.13531Z" fill="black"/>
<path d="M16.3586 15.917C16.5649 15.8639 16.6887 15.9465 16.7595 16.2059C16.8479 16.5124 17.1898 16.6539 17.5141 16.589C17.8147 16.5301 18.0446 16.2471 18.0446 15.9406C18.0505 15.634 17.8265 15.3511 17.5259 15.2803C17.3844 15.2508 17.2311 15.2508 17.0896 15.2273C16.5178 15.1211 16.0226 14.6083 15.9459 14.0482C15.8575 13.4056 16.1464 12.7984 16.7123 12.545C16.954 12.4388 17.0307 12.3032 17.0012 12.0615C16.9894 11.9967 17.0012 11.9319 17.0012 11.8611C17.0012 11.8316 16.9953 11.7963 17.0071 11.7727C17.1662 11.5605 17.3844 11.7137 17.573 11.6784C17.6791 11.6607 17.7499 11.7196 17.7322 11.8316C17.6555 12.2443 17.8206 12.4742 18.2038 12.657C18.5457 12.822 18.7108 13.1757 18.7874 13.553C18.8228 13.7299 18.7874 13.8478 18.5752 13.8242C18.5162 13.8183 18.4573 13.8183 18.3983 13.8242C18.1861 13.8478 18.0564 13.8006 17.9916 13.553C17.9149 13.2583 17.5612 13.0873 17.2665 13.1404C16.9363 13.2052 16.6946 13.4764 16.6887 13.8006C16.6828 14.1013 16.9069 14.3901 17.2075 14.4609C17.349 14.4904 17.5023 14.4904 17.6438 14.5139C18.2156 14.6142 18.7108 15.127 18.7933 15.693C18.8817 16.3297 18.5929 16.9428 18.0269 17.1963C17.7911 17.3024 17.7027 17.438 17.7381 17.6797C17.7499 17.7445 17.7381 17.8094 17.7381 17.8801C17.7381 17.9096 17.744 17.9449 17.7322 17.9685C17.5789 18.1807 17.3549 18.0334 17.1663 18.0687C17.0601 18.0864 16.9835 18.0275 17.0071 17.9155C17.0837 17.5028 16.9245 17.2611 16.5355 17.0901C16.2584 16.9663 16.1051 16.6775 15.999 16.3827C15.8634 15.9818 15.9106 15.917 16.3586 15.917Z" fill="black"/>
</svg>
