<svg width="92" height="128" viewBox="0 0 92 128" fill="none" xmlns="http://www.w3.org/2000/svg">
<path d="M4.33301 11.2505H87.6666V124.25H4.33301V11.2505Z" fill="#FFF5F5"/>
<path d="M45.9999 11.2505H87.6668V124.25H45.9999V11.2505Z" fill="#EAE6F3"/>
<path d="M91.4169 128H0.583008V7.50049H28.0124V15.0005H8.08304V120.5H83.9168V15.0005H63.9875V7.50049H91.4169V128Z" fill="#E8B36F"/>
<path d="M91.4168 7.50049H63.9875V15.0005H83.9168V120.5H45.9999V128H91.4168V7.50049Z" fill="#C48958"/>
<path d="M24.2623 0H67.7375V22.5011H24.2623V0Z" fill="#FFF79F"/>
<path d="M53.8322 37.8489L45.9999 30.0164L38.1676 37.8489C33.8491 42.1677 33.8491 49.1947 38.1676 53.5137C40.2599 55.6057 43.0414 56.7577 45.9999 56.7577C48.9584 56.7577 51.7399 55.6057 53.8322 53.5134C58.1509 49.1947 58.1509 42.1677 53.8322 37.8489Z" fill="#99E5FF"/>
<path d="M69.4163 64.7469H76.9168V72.247H69.4163V64.7469Z" fill="#5E59CE"/>
<path d="M15.083 64.7469H61.9157V72.247H15.083V64.7469Z" fill="#4793FF"/>
<path d="M69.4163 79.748H76.9168V87.2481H69.4163V79.748Z" fill="#5E59CE"/>
<path d="M15.083 79.748H61.9157V87.2481H15.083V79.748Z" fill="#4793FF"/>
<path d="M61.9157 102.249H15.083V94.7491H58.1659L61.9157 102.249Z" fill="#4793FF"/>
<path d="M61.9157 102.249L58.1659 94.7491H45.9999V102.249H61.9157Z" fill="#5E59CE"/>
<path d="M58.166 120.5L83.9166 94.7491H58.166V120.5Z" fill="#D8D2DE"/>
<path d="M45.9999 0H67.7375V22.5011H45.9999V0Z" fill="#FFDE55"/>
<path d="M53.8322 53.5134C58.1507 49.1947 58.1507 42.1677 53.8322 37.8489L45.9999 30.0164V56.7577C48.9584 56.7577 51.7399 55.6057 53.8322 53.5134Z" fill="#4AD0FF"/>
<path d="M45.9999 64.7469H61.9157V72.247H45.9999V64.7469Z" fill="#5E59CE"/>
<path d="M45.9999 79.748H61.9157V87.2481H45.9999V79.748Z" fill="#5E59CE"/>
</svg>
