<svg width="7" height="8" viewBox="0 0 7 8" fill="none" xmlns="http://www.w3.org/2000/svg">
<path d="M6.64649 1.2018C6.54305 1.09824 6.42032 1.04646 6.27863 1.04646H5.75547V0.65403C5.75547 0.474208 5.69137 0.320229 5.56331 0.192149C5.43517 0.0640687 5.28128 0 5.10137 0H4.83983C4.65993 0 4.50598 0.0640687 4.3779 0.192163C4.24978 0.320229 4.18574 0.474223 4.18574 0.654044V1.04647H2.61616V0.654044C2.61616 0.474223 2.55209 0.320243 2.424 0.192163C2.29593 0.0640687 2.14197 0 1.96208 0H1.70049C1.52064 0 1.36666 0.0640687 1.23857 0.192163C1.1105 0.320229 1.04642 0.474223 1.04642 0.654044V1.04647H0.523244C0.381506 1.04647 0.258895 1.09826 0.15534 1.20181C0.0517847 1.30535 0 1.42802 0 1.56972V6.80192C0 6.94351 0.0517847 7.06615 0.15534 7.16976C0.25888 7.27329 0.381491 7.32509 0.523244 7.32509H6.27853C6.42022 7.32509 6.54296 7.2733 6.64639 7.16976C6.74996 7.06619 6.80176 6.9435 6.80176 6.80192V1.5697C6.80174 1.42797 6.75 1.30535 6.64649 1.2018ZM1.70045 6.80184H0.523244V5.62456H1.70045V6.80184ZM1.70045 5.36301H0.523244V4.05504H1.70045V5.36301ZM1.70045 3.79331H0.523244V2.61612H1.70045V3.79331ZM1.60853 1.92325C1.58263 1.89735 1.5697 1.86675 1.5697 1.83129V0.654087C1.5697 0.618667 1.58263 0.587986 1.60853 0.562129C1.63443 0.53623 1.66503 0.523301 1.70049 0.523301H1.96208C1.9975 0.523301 2.02818 0.53623 2.05403 0.562129C2.07993 0.588 2.09289 0.618667 2.09289 0.654087V1.83129C2.09289 1.86677 2.07988 1.89736 2.05403 1.92325C2.02816 1.94915 1.99754 1.96208 1.96208 1.96208H1.70049C1.66507 1.96209 1.63443 1.94915 1.60853 1.92325ZM3.27011 6.80184H1.96203V5.62456H3.27011V6.80184ZM3.27011 5.36301H1.96203V4.05504H3.27011V5.36301ZM3.27011 3.79331H1.96203V2.61612H3.27011V3.79331ZM4.83983 6.80184H3.53177V5.62456H4.83983V6.80184ZM4.83983 5.36301H3.53177V4.05504H4.83983V5.36301ZM4.83983 3.79331H3.53177V2.61612H4.83983V3.79331ZM4.74781 1.92325C4.72194 1.89735 4.70905 1.86675 4.70905 1.83129V0.654087C4.70905 0.618667 4.72194 0.587986 4.74781 0.562129C4.77369 0.53623 4.80435 0.523301 4.83983 0.523301H5.10137C5.13685 0.523301 5.16747 0.53623 5.19338 0.562129C5.21927 0.588 5.23214 0.618667 5.23214 0.654087V1.83129C5.23214 1.86677 5.21921 1.89736 5.19338 1.92325C5.16751 1.94915 5.13685 1.96208 5.10137 1.96208H4.83983C4.80436 1.96209 4.77359 1.94915 4.74781 1.92325ZM6.27853 6.80184H5.10127V5.62456H6.27853V6.80184ZM6.27853 5.36301H5.10127V4.05504H6.27853V5.36301ZM6.27853 3.79331H5.10127V2.61612H6.27853V3.79331Z" fill="white"/>
</svg>
