<svg width="15" height="16" viewBox="0 0 15 16" fill="none" xmlns="http://www.w3.org/2000/svg">
<path fill-rule="evenodd" clip-rule="evenodd" d="M6.79166 1.49723C6.40044 1.49723 6.08332 1.79159 6.08332 2.15469V2.81215H8.91666V2.15469C8.91666 1.79159 8.59954 1.49723 8.20832 1.49723H6.79166ZM10.3333 2.81215V2.15469C10.3333 1.06538 9.38196 0.182312 8.20832 0.182312H6.79166C5.61805 0.182312 4.66666 1.06538 4.66666 2.15469V2.81215H1.12499C0.733792 2.81215 0.416656 3.1065 0.416656 3.4696C0.416656 3.83271 0.733792 4.12706 1.12499 4.12706H1.19934L2.40596 14.2068C2.52554 15.2056 3.43518 15.9613 4.51797 15.9613H10.482C11.5648 15.9613 12.4745 15.2056 12.594 14.2068L13.8006 4.12706H13.875C14.2662 4.12706 14.5833 3.83271 14.5833 3.4696C14.5833 3.1065 14.2662 2.81215 13.875 2.81215H10.3333ZM12.3752 4.12706H2.62472L3.81396 14.0615C3.85382 14.3945 4.15704 14.6464 4.51797 14.6464H10.482C10.843 14.6464 11.1461 14.3945 11.186 14.0615L12.3752 4.12706ZM6.08332 6.09944C6.47454 6.09944 6.79166 6.39379 6.79166 6.7569V12.0166C6.79166 12.3797 6.47454 12.674 6.08332 12.674C5.69213 12.674 5.37499 12.3797 5.37499 12.0166V6.7569C5.37499 6.39379 5.69213 6.09944 6.08332 6.09944ZM8.91666 6.09944C9.30787 6.09944 9.62499 6.39379 9.62499 6.7569V12.0166C9.62499 12.3797 9.30787 12.674 8.91666 12.674C8.52544 12.674 8.20832 12.3797 8.20832 12.0166V6.7569C8.20832 6.39379 8.52544 6.09944 8.91666 6.09944Z" fill="#293644"/>
</svg>
