<svg width="16" height="16" viewBox="0 0 16 16" fill="none" xmlns="http://www.w3.org/2000/svg">
<path d="M0 3.86229C0.124809 3.38346 0.386908 3.00117 0.857022 2.75404C1.09 2.63047 1.33962 2.54938 1.61004 2.54938C3.92732 2.54938 6.24877 2.54938 8.56606 2.54938C8.81984 2.54938 9.01953 2.69998 9.05282 2.91236C9.09026 3.14019 8.96129 3.34098 8.73247 3.41435C8.64927 3.44138 8.56606 3.43366 8.48701 3.43366C6.27789 3.43366 4.06877 3.43366 1.85965 3.43366C1.6142 3.43366 1.38538 3.46841 1.19817 3.63446C1.00263 3.80436 0.948549 4.02061 0.948549 4.2523C0.948549 5.08252 0.948549 5.91274 0.948549 6.74296C0.948549 8.92084 0.948549 11.0949 0.948549 13.2727C0.948549 13.4233 0.96103 13.5739 1.03175 13.7091C1.17737 13.991 1.4353 14.1107 1.75981 14.1261C1.78477 14.1261 1.80973 14.1261 1.83885 14.1261C5.08805 14.1261 8.33724 14.1261 11.5864 14.1261C12.1564 14.1261 12.4726 13.8288 12.4726 13.2959C12.4726 11.2223 12.4726 9.14481 12.4726 7.07119C12.4726 6.76613 12.6889 6.57692 13.0009 6.59622C13.2173 6.61167 13.4045 6.77771 13.4253 6.97465C13.4295 7.01713 13.4295 7.0596 13.4295 7.10594C13.4295 9.19501 13.417 11.2841 13.4336 13.3731C13.4378 14.0952 12.9011 14.8482 11.9983 14.995C11.8943 15.0104 11.7903 15.0104 11.6863 15.0104C8.37053 15.0104 5.05061 15.0104 1.73485 15.0104C0.906946 15.0104 0.262099 14.5509 0.0374427 13.8095C0.0249618 13.7709 0.0124809 13.7361 0 13.6975C0 10.4268 0 7.14456 0 3.86229Z" fill="black"/>
<path d="M14.2615 0.182312C14.532 0.259542 14.7441 0.414002 14.9397 0.603215C15.1685 0.827182 15.4098 1.03956 15.6428 1.25967C16.117 1.70374 16.1212 2.32158 15.6428 2.76951C15.1726 3.21359 14.6942 3.64993 14.2199 4.09014C12.3894 5.7892 10.5589 7.48826 8.72833 9.19118C8.57856 9.33019 8.41215 9.41515 8.20413 9.45376C7.54264 9.56961 6.88116 9.69704 6.21967 9.81674C5.79116 9.89397 5.50826 9.63139 5.59562 9.23366C5.73291 8.59265 5.87436 7.94778 6.01165 7.30677C6.04078 7.17162 6.10734 7.0635 6.20719 6.97082C8.5328 4.81224 10.8626 2.64981 13.1882 0.491232C13.3504 0.340633 13.546 0.244096 13.7623 0.182312C13.9287 0.182312 14.0951 0.182312 14.2615 0.182312ZM6.75219 8.79731C7.1391 8.72394 7.50936 8.65443 7.88379 8.58879C7.9878 8.56948 8.06268 8.527 8.13341 8.4575C8.34974 8.24897 8.5744 8.04818 8.7949 7.84352C10.4049 6.34912 12.015 4.85472 13.6292 3.36032C13.7249 3.27151 13.7457 3.21745 13.6333 3.12091C13.3463 2.86991 13.0675 2.60733 12.7929 2.34475C12.7097 2.26752 12.664 2.25593 12.5725 2.34089C10.7294 4.05539 8.88226 5.76989 7.03925 7.48054C6.99765 7.51915 6.95188 7.55004 6.9394 7.60797C6.86036 7.97481 6.78131 8.34551 6.6981 8.71235C6.68978 8.77028 6.6981 8.80117 6.75219 8.79731ZM15.0145 2.01652C15.0104 1.97018 14.9854 1.92771 14.948 1.89295C14.6776 1.64196 14.403 1.39096 14.1326 1.1361C14.0452 1.05501 13.9662 1.05115 13.8788 1.13224C13.7415 1.26353 13.6 1.39096 13.4586 1.51839C13.392 1.58017 13.392 1.62651 13.4586 1.68829C13.7581 1.96246 14.0535 2.23663 14.3489 2.51465C14.4113 2.57644 14.4654 2.5803 14.532 2.51852C14.6692 2.38723 14.8107 2.2598 14.948 2.12851C14.9854 2.09761 15.0104 2.06286 15.0145 2.01652Z" fill="black"/>
</svg>
