<svg width="128" height="128" viewBox="0 0 128 128" fill="none" xmlns="http://www.w3.org/2000/svg">
<g clip-path="url(#clip0_33_91)">
<path d="M49 42.4004C47.7256 42.4004 46.375 42.4004 45.0244 42.5498H44.7998C20.2002 44.875 0 68.2256 0 94.25C0 124.476 28.0752 128 49 128C69.7754 128 94 124.851 97.375 100.025C100.899 70.9248 77.7998 42.4004 49 42.4004Z" fill="#FF637B"/>
<path d="M97.375 100.025C94 124.851 69.7754 128 49 128V42.4004C77.7998 42.4004 100.899 70.9248 97.375 100.025Z" fill="#E63950"/>
<path d="M75.0244 12.4502L67.5244 35.2002H30.4755L22.9755 12.4502C22.5244 11.3252 22.7499 10.0498 23.4248 9.0752C24.1748 8.10059 25.2998 7.5 26.5 7.5H38.4248C39.9248 3.14941 44.125 0 49 0C53.875 0 58 3.14941 59.5751 7.5H71.5C72.7002 7.5 73.8252 8.10059 74.5752 9.0752C75.25 10.0498 75.4755 11.3252 75.0244 12.4502Z" fill="#FF637B"/>
<path d="M75.0244 12.4502L67.5244 35.2002H49V0C53.875 0 58 3.14941 59.5752 7.5H71.5C72.7002 7.5 73.8252 8.10059 74.5752 9.0752C75.25 10.0498 75.4756 11.3252 75.0244 12.4502Z" fill="#E63950"/>
<path d="M60.1748 95.375C60.1748 100.25 57.1006 104.3 52.75 105.875V109.25C52.75 111.351 51.1006 113 49 113C46.8994 113 45.25 111.351 45.25 109.25V105.95C40.8994 104.375 37.6748 100.25 37.6748 95.375C37.6748 93.2754 39.3994 91.625 41.4248 91.625C43.5254 91.625 45.1748 93.2754 45.1748 95.375C45.1748 97.4004 46.8994 99.125 48.9248 99.125H49C51.1006 99.0498 52.6748 97.4004 52.6748 95.375C52.6748 93.2754 51.1006 91.7002 49 91.625H48.9248C42.7754 91.625 37.6748 86.5244 37.6748 80.375C37.6748 75.4248 40.9004 71.2998 45.25 69.7998V64.25C45.25 62.1494 46.8994 60.5 49 60.5C51.1006 60.5 52.75 62.1494 52.75 64.25V69.7998C57.1006 71.375 60.1748 75.5 60.1748 80.375C60.1748 82.4004 58.5254 84.125 56.4248 84.125C54.3994 84.125 52.6748 82.4004 52.6748 80.375C52.6748 78.2754 51.1006 76.7002 49 76.625H48.9248C46.8994 76.625 45.1748 78.2754 45.1748 80.375C45.1748 82.4004 46.8994 84.125 48.9248 84.125H49C55.2256 84.2002 60.1748 89.1504 60.1748 95.375Z" fill="#FFDA2D"/>
<path d="M128 75.5C128 79.625 124.625 83 120.5 83L101.5 90.5L82.75 83C78.625 83 75.25 79.625 75.25 75.5C75.25 71.375 78.625 68 82.75 68H120.5C124.625 68 128 71.375 128 75.5Z" fill="#FFDA2D"/>
<path d="M128 75.5C128 79.625 124.625 83 120.5 83L101.5 90.5V68H120.5C124.625 68 128 71.375 128 75.5Z" fill="#FDBF00"/>
<path d="M128 90.5C128 94.625 124.625 98 120.5 98L101.5 105.5L82.75 98C78.625 98 75.25 94.625 75.25 90.5C75.25 86.375 78.625 83 82.75 83H120.5C124.625 83 128 86.375 128 90.5Z" fill="#FDBF00"/>
<path d="M128 90.5C128 94.625 124.625 98 120.5 98L101.5 105.5V83H120.5C124.625 83 128 86.375 128 90.5Z" fill="#FF9100"/>
<path d="M128 105.5C128 109.625 124.625 113 120.5 113L101.5 120.5L82.75 113C78.625 113 75.25 109.625 75.25 105.5C75.25 101.375 78.625 98 82.75 98H120.5C124.625 98 128 101.375 128 105.5Z" fill="#FFDA2D"/>
<path d="M128 105.5C128 109.625 124.625 113 120.5 113L101.5 120.5V98H120.5C124.625 98 128 101.375 128 105.5Z" fill="#FDBF00"/>
<path d="M128 120.5C128 124.625 124.625 128 120.5 128H82.75C78.625 128 75.25 124.625 75.25 120.5C75.25 116.375 78.625 113 82.75 113H120.5C124.625 113 128 116.375 128 120.5Z" fill="#FDBF00"/>
<path d="M128 120.5C128 124.625 124.625 128 120.5 128H101.5V113H120.5C124.625 113 128 116.375 128 120.5Z" fill="#FF9100"/>
<path d="M75.25 37.75C75.25 41.875 71.875 45.25 67.75 45.25H30.25C26.125 45.25 22.75 41.875 22.75 37.75C22.75 33.625 26.125 30.25 30.25 30.25H67.75C71.875 30.25 75.25 33.625 75.25 37.75Z" fill="#FFDA2D"/>
<path d="M60.1748 95.375C60.1748 100.25 57.1006 104.3 52.75 105.875V109.25C52.75 111.351 51.1006 113 49 113V99.125C51.1006 99.0498 52.6748 97.4004 52.6748 95.375C52.6748 93.2754 51.1006 91.7002 49 91.625V84.125C55.2256 84.2002 60.1748 89.1504 60.1748 95.375Z" fill="#FDBF00"/>
<path d="M60.1748 80.375C60.1748 82.4004 58.5254 84.125 56.4248 84.125C54.3994 84.125 52.6748 82.4004 52.6748 80.375C52.6748 78.2754 51.1006 76.7002 49 76.625V60.5C51.1006 60.5 52.75 62.1494 52.75 64.25V69.7998C57.1006 71.375 60.1748 75.5 60.1748 80.375Z" fill="#FDBF00"/>
<path d="M75.25 37.75C75.25 41.875 71.875 45.25 67.75 45.25H49V30.25H67.75C71.875 30.25 75.25 33.625 75.25 37.75Z" fill="#FDBF00"/>
</g>
<defs>
<clipPath id="clip0_33_91">
<rect width="128" height="128" fill="white"/>
</clipPath>
</defs>
</svg>
