<svg width="28" height="21" viewBox="0 0 28 21" fill="none" xmlns="http://www.w3.org/2000/svg">
<path d="M0.875 1.75H27.125C27.608 1.75 28 1.35888 28 0.875C28 0.391125 27.608 0 27.125 0H0.875C0.392 0 0 0.391125 0 0.875C0 1.35888 0.391125 1.75 0.875 1.75Z" fill="white"/>
<path d="M0.875 21H27.125C27.608 21 28 20.6089 28 20.125C28 19.6411 27.608 19.25 27.125 19.25H0.875C0.392 19.25 0 19.6411 0 20.125C0 20.6089 0.391125 21 0.875 21Z" fill="white"/>
<path d="M0.875 11.375H27.125C27.608 11.375 28 10.9839 28 10.5C28 10.0161 27.608 9.625 27.125 9.625H0.875C0.392 9.625 0 10.0161 0 10.5C0 10.9839 0.391125 11.375 0.875 11.375Z" fill="white"/>
</svg>
