<svg width="15" height="25" viewBox="0 0 15 25" fill="none" xmlns="http://www.w3.org/2000/svg">
<path d="M14 20H1" stroke="white" stroke-linecap="round" stroke-linejoin="round"/>
<path d="M7.5 21.25C7.35166 21.25 7.20666 21.294 7.08332 21.3764C6.95999 21.4588 6.86386 21.5759 6.80709 21.713C6.75033 21.85 6.73547 22.0008 6.76441 22.1463C6.79335 22.2918 6.86478 22.4254 6.96967 22.5303C7.07456 22.6352 7.2082 22.7066 7.35368 22.7356C7.49917 22.7645 7.64997 22.7497 7.78701 22.6929C7.92406 22.6361 8.04119 22.54 8.1236 22.4167C8.20601 22.2933 8.25 22.1483 8.25 22C8.25013 21.9015 8.23082 21.8039 8.19318 21.7128C8.15553 21.6218 8.10029 21.539 8.03062 21.4694C7.96095 21.3997 7.87822 21.3445 7.78717 21.3068C7.69612 21.2692 7.59853 21.2499 7.5 21.25Z" fill="white"/>
<path d="M12 1H3C1.89543 1 1 1.89543 1 3V22C1 23.1046 1.89543 24 3 24H12C13.1046 24 14 23.1046 14 22V3C14 1.89543 13.1046 1 12 1Z" stroke="white" stroke-linecap="round" stroke-linejoin="round"/>
</svg>
