<svg width="128" height="128" viewBox="0 0 128 128" fill="none" xmlns="http://www.w3.org/2000/svg">
<g clip-path="url(#clip0_32_16)">
<path d="M117.327 17.09L110.012 90.2325H29.4885L22.1735 17.09H117.327Z" fill="#4ABBEF"/>
<path d="M117.327 17.09L110.012 90.2325H68.465V17.09H117.327Z" fill="#009BE5"/>
<path d="M128 27.43C128 42.5775 115.72 54.8575 100.572 54.8575C85.4225 54.8575 73.1425 42.5775 73.1425 27.43C73.1425 12.28 85.4225 0 100.572 0C115.72 0 128 12.28 128 27.43Z" fill="#83E470"/>
<path d="M128 27.43C128 42.5775 115.72 54.8575 100.573 54.8575V0C115.72 0 128 12.28 128 27.43Z" fill="#01B763"/>
<path d="M114.925 22.9876L100.573 37.3401L98.085 39.8276L86.2175 27.9601L91.5225 22.6576L98.085 29.2201L100.573 26.7326L109.62 17.6851L114.925 22.9876Z" fill="#F3FDFF"/>
<path d="M114.925 22.9876L100.573 37.3401V26.7326L109.62 17.6851L114.925 22.9876Z" fill="#D7F3F7"/>
<path d="M81.9807 68.8573H89.4807V76.3573H81.9807V68.8573Z" fill="#224370"/>
<path d="M64.715 68.8575H72.215V76.3575H64.715V68.8575Z" fill="#39689E"/>
<path d="M68.465 68.8575H72.215V76.3575H68.465V68.8575Z" fill="#224370"/>
<path d="M47.4495 68.8573H54.9495V76.3573H47.4495V68.8573Z" fill="#39689E"/>
<path d="M24.7175 98.25C24.6175 101.01 26.835 103.285 29.5725 103.285H110.418C110.425 103.285 110.427 103.29 110.427 103.295V110.775C110.427 110.78 110.425 110.785 110.418 110.785H29.7875C22.9525 110.785 17.25 105.327 17.215 98.4925C17.1875 93.08 20.6575 88.465 25.49 86.7675C25.495 86.765 25.4975 86.7625 25.4975 86.7575L17.5725 7.51C17.57 7.505 17.5675 7.5 17.5625 7.5H0.01C0.005 7.5 0 7.495 0 7.49V0.01C0 0.005 0.005 0 0.01 0H24.35C24.355 0 24.3575 0.005 24.36 0.01L32.965 86.0625C32.965 86.0675 32.97 86.0725 32.975 86.0725H110.418C110.425 86.0725 110.427 86.075 110.427 86.0825V93.5625C110.427 93.5675 110.425 93.5725 110.418 93.5725H29.7C27.065 93.5725 24.8125 95.6175 24.7175 98.25Z" fill="#39689E"/>
<path d="M110.427 86.0825V93.5625C110.427 93.5675 110.425 93.5725 110.417 93.5725H68.465V86.0725H110.417C110.425 86.0725 110.427 86.075 110.427 86.0825Z" fill="#224370"/>
<path d="M110.417 103.285C110.425 103.285 110.427 103.29 110.427 103.295V110.775C110.427 110.78 110.425 110.785 110.417 110.785H68.465V103.285H110.417Z" fill="#224370"/>
<path d="M45.392 128C50.4414 128 54.5348 123.907 54.5348 118.857C54.5348 113.808 50.4414 109.714 45.392 109.714C40.3426 109.714 36.2493 113.808 36.2493 118.857C36.2493 123.907 40.3426 128 45.392 128Z" fill="#4ABBEF"/>
<path d="M91.2153 128C96.2647 128 100.358 123.907 100.358 118.857C100.358 113.808 96.2647 109.714 91.2153 109.714C86.1659 109.714 82.0725 113.808 82.0725 118.857C82.0725 123.907 86.1659 128 91.2153 128Z" fill="#009BE5"/>
</g>
<defs>
<clipPath id="clip0_32_16">
<rect width="128" height="128" fill="white"/>
</clipPath>
</defs>
</svg>
