<svg width="22" height="20" viewBox="0 0 22 20" fill="none" xmlns="http://www.w3.org/2000/svg">
<path d="M1.69198 7.46462C1.87196 7.46462 2.04456 7.39312 2.17182 7.26586C2.29909 7.1386 2.37058 6.96599 2.37058 6.78602V1.3572H7.79939C7.97937 1.3572 8.15197 1.28571 8.27924 1.15845C8.4065 1.03118 8.47799 0.858578 8.47799 0.678602C8.47799 0.498625 8.4065 0.32602 8.27924 0.198758C8.15197 0.0714952 7.97937 0 7.79939 0H1.69198C1.51237 0.00118558 1.34045 0.0730616 1.21345 0.200068C1.08644 0.327074 1.01456 0.498991 1.01338 0.678602V6.7634C1.01034 6.8544 1.02565 6.94508 1.05839 7.03004C1.09113 7.115 1.14064 7.1925 1.20396 7.25793C1.26728 7.32336 1.34311 7.37538 1.42696 7.41089C1.5108 7.4464 1.60093 7.46467 1.69198 7.46462Z" fill="white"/>
<path d="M13.7032 1.34815H19.132V6.77697C19.132 6.95694 19.2035 7.12955 19.3308 7.25681C19.4581 7.38407 19.6307 7.45557 19.8106 7.45557C19.9906 7.45557 20.1632 7.38407 20.2905 7.25681C20.4177 7.12955 20.4892 6.95694 20.4892 6.77697V0.678602C20.488 0.498991 20.4162 0.327074 20.2892 0.200068C20.1622 0.0730616 19.9902 0.00118558 19.8106 0H13.7032C13.5379 0.0191857 13.3854 0.098456 13.2747 0.222738C13.164 0.34702 13.1028 0.507647 13.1028 0.674077C13.1028 0.840508 13.164 1.00113 13.2747 1.12542C13.3854 1.2497 13.5379 1.32897 13.7032 1.34815Z" fill="white"/>
<path d="M19.788 12.0112C19.6081 12.0112 19.4354 12.0827 19.3082 12.21C19.1809 12.3373 19.1094 12.5099 19.1094 12.6898V18.1186H13.6806C13.5006 18.1186 13.328 18.1901 13.2008 18.3174C13.0735 18.4447 13.002 18.6173 13.002 18.7972C13.002 18.9772 13.0735 19.1498 13.2008 19.2771C13.328 19.4044 13.5006 19.4758 13.6806 19.4758H19.788C19.9676 19.4747 20.1396 19.4028 20.2666 19.2758C20.3936 19.1488 20.4654 18.9769 20.4666 18.7972V12.6898C20.4666 12.5099 20.3951 12.3373 20.2679 12.21C20.1406 12.0827 19.968 12.0112 19.788 12.0112Z" fill="white"/>
<path d="M7.7768 18.1051H2.34799V12.6763C2.34799 12.4963 2.27649 12.3237 2.14923 12.1964C2.02197 12.0692 1.84936 11.9977 1.66939 11.9977C1.48941 11.9977 1.3168 12.0692 1.18954 12.1964C1.06228 12.3237 0.990784 12.4963 0.990784 12.6763V18.7746C0.991969 18.9543 1.06385 19.1262 1.19085 19.2532C1.31786 19.3802 1.48978 19.4521 1.66939 19.4532H7.7768C7.94212 19.4341 8.09463 19.3548 8.20532 19.2305C8.31601 19.1062 8.37717 18.9456 8.37717 18.7792C8.37717 18.6127 8.31601 18.4521 8.20532 18.3278C8.09463 18.2036 7.94212 18.1243 7.7768 18.1051Z" fill="white"/>
<path d="M20.8014 9.04803H0.678602C0.498625 9.04803 0.32602 9.11953 0.198758 9.24679C0.0714952 9.37406 0 9.54666 0 9.72664C0 9.90661 0.0714952 10.0792 0.198758 10.2065C0.32602 10.3337 0.498625 10.4052 0.678602 10.4052H20.8014C20.9814 10.4052 21.154 10.3337 21.2812 10.2065C21.4085 10.0792 21.48 9.90661 21.48 9.72664C21.48 9.54666 21.4085 9.37406 21.2812 9.24679C21.154 9.11953 20.9814 9.04803 20.8014 9.04803Z" fill="white"/>
</svg>
