<svg width="24" height="25" viewBox="0 0 24 25" fill="none" xmlns="http://www.w3.org/2000/svg">
<path d="M12.8232 4.82841V0.838266C12.8232 0.615944 12.7348 0.402727 12.5776 0.245522C12.4204 0.0883169 12.2072 0 11.9849 0C11.7626 0 11.5494 0.0883169 11.3922 0.245522C11.235 0.402727 11.1466 0.615944 11.1466 0.838266V4.82841C10.422 5.01916 9.78099 5.44446 9.32356 6.0379C8.86612 6.63134 8.61804 7.35954 8.61804 8.10882C8.61804 8.8581 8.86612 9.5863 9.32356 10.1797C9.78099 10.7732 10.422 11.1985 11.1466 11.3892V23.192C11.1466 23.4143 11.235 23.6276 11.3922 23.7848C11.5494 23.942 11.7626 24.0303 11.9849 24.0303C12.2072 24.0303 12.4204 23.942 12.5776 23.7848C12.7348 23.6276 12.8232 23.4143 12.8232 23.192V11.3892C16.1874 10.5286 16.1874 5.68344 12.8232 4.82841ZM11.9849 9.81888C11.5475 9.79389 11.1363 9.60254 10.8355 9.28406C10.5347 8.96558 10.3671 8.5441 10.3671 8.10603C10.3671 7.66795 10.5347 7.24647 10.8355 6.92799C11.1363 6.60951 11.5475 6.41816 11.9849 6.39317C12.4223 6.41816 12.8335 6.60951 13.1343 6.92799C13.4351 7.24647 13.6027 7.66795 13.6027 8.10603C13.6027 8.5441 13.4351 8.96558 13.1343 9.28406C12.8335 9.60254 12.4223 9.79389 11.9849 9.81888Z" fill="#2C479E"/>
<path d="M23.9999 12.0151C23.9987 11.2632 23.7478 10.533 23.2866 9.93926C22.8253 9.34547 22.1798 8.92177 21.4516 8.73473V0.838266C21.4516 0.615944 21.3632 0.402727 21.206 0.245522C21.0488 0.0883169 20.8356 0 20.6133 0C20.391 0 20.1778 0.0883169 20.0205 0.245522C19.8633 0.402727 19.775 0.615944 19.775 0.838266V8.73473C19.0504 8.92548 18.4094 9.35077 17.9519 9.94422C17.4945 10.5377 17.2464 11.2659 17.2464 12.0151C17.2464 12.7644 17.4945 13.4926 17.9519 14.0861C18.4094 14.6795 19.0504 15.1048 19.775 15.2956V23.192C19.775 23.4143 19.8633 23.6276 20.0205 23.7848C20.1778 23.942 20.391 24.0303 20.6133 24.0303C20.8356 24.0303 21.0488 23.942 21.206 23.7848C21.3632 23.6276 21.4516 23.4143 21.4516 23.192V15.2956C22.1798 15.1085 22.8253 14.6848 23.2866 14.091C23.7478 13.4972 23.9987 12.767 23.9999 12.0151ZM20.6468 13.7252C20.1933 13.7252 19.7583 13.545 19.4376 13.2243C19.1169 12.9036 18.9368 12.4687 18.9368 12.0151C18.9368 11.5616 19.1169 11.1266 19.4376 10.8059C19.7583 10.4852 20.1933 10.3051 20.6468 10.3051C21.1004 10.308 21.5341 10.4911 21.8527 10.8138C22.1713 11.1366 22.3487 11.5728 22.3457 12.0263C22.3427 12.4799 22.1597 12.9136 21.8369 13.2322C21.5141 13.5508 21.078 13.7282 20.6245 13.7252H20.6468Z" fill="#2C479E"/>
<path d="M4.19458 14.8094V0.838266C4.19458 0.615944 4.10626 0.402727 3.94906 0.245522C3.79185 0.0883169 3.57863 0 3.35631 0C3.13399 0 2.92077 0.0883169 2.76357 0.245522C2.60636 0.402727 2.51805 0.615944 2.51805 0.838266V14.8094C1.79588 15.002 1.15753 15.4277 0.702189 16.0204C0.246846 16.6131 0 17.3396 0 18.087C0 18.8344 0.246846 19.5609 0.702189 20.1536C1.15753 20.7463 1.79588 21.172 2.51805 21.3646V23.192C2.51805 23.4143 2.60636 23.6276 2.76357 23.7848C2.92077 23.942 3.13399 24.0303 3.35631 24.0303C3.57863 24.0303 3.79185 23.942 3.94906 23.7848C4.10626 23.6276 4.19458 23.4143 4.19458 23.192V21.3702C4.91917 21.1794 5.56022 20.7541 6.01765 20.1607C6.47509 19.5673 6.72317 18.8391 6.72317 18.0898C6.72317 17.3405 6.47509 16.6123 6.01765 16.0188C5.56022 15.4254 4.91917 15.0001 4.19458 14.8094ZM3.35631 19.8054C2.91895 19.7804 2.50772 19.5891 2.20692 19.2706C1.90612 18.9521 1.73854 18.5306 1.73854 18.0926C1.73854 17.6545 1.90612 17.233 2.20692 16.9145C2.50772 16.5961 2.91895 16.4047 3.35631 16.3797C3.79367 16.4047 4.20491 16.5961 4.50571 16.9145C4.80651 17.233 4.97408 17.6545 4.97408 18.0926C4.97408 18.5306 4.80651 18.9521 4.50571 19.2706C4.20491 19.5891 3.79367 19.7804 3.35631 19.8054Z" fill="#2C479E"/>
</svg>
